<svg xmlns="http://www.w3.org/2000/svg" viewBox="0 0 100 100" width="100" height="100">
  <!-- Ícone genérico de calendário para o sistema -->
  <rect x="10" y="20" width="80" height="70" rx="8" fill="#0d6efd" />
  <rect x="10" y="20" width="80" height="20" rx="8" fill="#0b5ed7" />
  <circle cx="30" cy="15" r="5" fill="#495057" />
  <circle cx="70" cy="15" r="5" fill="#495057" />
  <rect x="25" y="10" width="10" height="15" rx="2" fill="#495057" />
  <rect x="65" y="10" width="10" height="15" rx="2" fill="#495057" />
  <!-- Grid do calendário -->
  <rect x="20" y="48" width="12" height="12" rx="2" fill="#ffffff" />
  <rect x="36" y="48" width="12" height="12" rx="2" fill="#ffffff" />
  <rect x="52" y="48" width="12" height="12" rx="2" fill="#28a745" />
  <rect x="68" y="48" width="12" height="12" rx="2" fill="#ffffff" />
  <rect x="20" y="65" width="12" height="12" rx="2" fill="#ffffff" />
  <rect x="36" y="65" width="12" height="12" rx="2" fill="#ffc107" />
  <rect x="52" y="65" width="12" height="12" rx="2" fill="#ffffff" />
  <rect x="68" y="65" width="12" height="12" rx="2" fill="#dc3545" />
</svg>
